<mxfile host="Electron" modified="2023-09-30T14:33:38.653Z" agent="Mozilla/5.0 (X11; Linux x86_64) AppleWebKit/537.36 (KHTML, like Gecko) draw.io/22.0.0 Chrome/114.0.5735.289 Electron/25.8.3 Safari/537.36" etag="Yi4vOxNNlFY5aMYE1bSz" version="22.0.0" type="device">
  <diagram name="Page-1" id="fo18u6Ch1KVScq3Fo-Wy">
    <mxGraphModel dx="1469" dy="868" grid="1" gridSize="9.8425" guides="1" tooltips="1" connect="1" arrows="1" fold="1" page="1" pageScale="1" pageWidth="1169" pageHeight="827" math="0" shadow="0">
      <root>
        <object label="" description="Use Edit-&gt;Edit Data... on the document to configure the &quot;description&quot; property and modify this text.&#xa;When creating a new page, use the Extras-&gt;Edit Diagram... function to copy and paste the raw code for the template page." rev="A0" size="A4" scale="1:1" author="John Doe" part_num="" dwg_no="" serial_num="" extra_label="Part #" id="0">
          <mxCell />
        </object>
        <object label="Title Block" id="1">
          <mxCell style="locked=1;" parent="0" />
        </object>
        <mxCell id="BJZrzUYKFe9HMTDBOYGV-1" value="" style="rounded=0;whiteSpace=wrap;html=1;fillColor=none;movable=1;resizable=1;rotatable=1;deletable=1;editable=1;locked=0;connectable=1;" parent="1" vertex="1">
          <mxGeometry x="19.685" y="19.685" width="1122.0449999999998" height="787.4" as="geometry" />
        </mxCell>
        <mxCell id="BJZrzUYKFe9HMTDBOYGV-2" value="" style="rounded=0;whiteSpace=wrap;html=1;fillColor=none;strokeWidth=1;movable=1;resizable=1;rotatable=1;deletable=1;editable=1;locked=0;connectable=1;" parent="1" vertex="1">
          <mxGeometry x="39.37" y="39.37" width="1082.675" height="748.03" as="geometry" />
        </mxCell>
        <mxCell id="h7L3MlKvrl_dhOmhB3lf-10" value="Prepared with: draw.io v22.0.0" style="strokeWidth=1;shadow=0;dashed=0;align=center;html=1;shape=mxgraph.mockup.text.textBox;fontColor=#666666;align=left;fontSize=17;spacingLeft=4;spacingTop=-3;whiteSpace=wrap;strokeColor=#333333;mainText=;fillColor=none;fontFamily=Open Sans;movable=1;resizable=1;rotatable=1;deletable=1;editable=1;locked=0;connectable=1;" parent="1" vertex="1">
          <mxGeometry x="563.54" y="757.4" width="280" height="30" as="geometry" />
        </mxCell>
        <object label="&lt;div align=&quot;left&quot;&gt;Sheet %pagenumber%/%pagecount%&lt;/div&gt;" placeholders="1" id="h7L3MlKvrl_dhOmhB3lf-12">
          <mxCell style="strokeWidth=1;shadow=0;dashed=0;align=left;html=1;shape=mxgraph.mockup.text.textBox;fontColor=#666666;align=left;fontSize=17;spacingLeft=4;spacingTop=-3;whiteSpace=wrap;strokeColor=#333333;mainText=;fillColor=none;fontFamily=Open Sans;movable=1;resizable=1;rotatable=1;deletable=1;editable=1;locked=0;connectable=1;" parent="1" vertex="1">
            <mxGeometry x="403.54" y="757.4" width="160" height="30" as="geometry" />
          </mxCell>
        </object>
        <object label="Date: &lt;font style=&quot;font-size: 17px;&quot;&gt;%date{ddd mmm dd yyyy HH:MM:ss}%&lt;/font&gt;" placeholders="1" id="h7L3MlKvrl_dhOmhB3lf-13">
          <mxCell style="strokeWidth=1;shadow=0;dashed=0;align=center;html=1;shape=mxgraph.mockup.text.textBox;fontColor=#666666;align=left;fontSize=17;spacingLeft=4;spacingTop=-3;whiteSpace=wrap;strokeColor=#333333;mainText=;fillColor=none;fontFamily=Open Sans;movable=1;resizable=1;rotatable=1;deletable=1;editable=1;locked=0;connectable=1;" parent="1" vertex="1">
            <mxGeometry x="843.54" y="757.4" width="278.5" height="30" as="geometry" />
          </mxCell>
        </object>
        <object label="&lt;b&gt;Title: %page%&lt;/b&gt;" placeholders="1" id="h7L3MlKvrl_dhOmhB3lf-14">
          <mxCell style="strokeWidth=1;shadow=0;dashed=0;align=center;html=1;shape=mxgraph.mockup.text.textBox;fontColor=#666666;align=left;fontSize=17;spacingLeft=4;spacingTop=-3;whiteSpace=wrap;strokeColor=#333333;mainText=;fillColor=none;fontFamily=Open Sans;movable=1;resizable=1;rotatable=1;deletable=1;editable=1;locked=0;connectable=1;" parent="1" vertex="1">
            <mxGeometry x="403.54" y="667.4" width="600" height="30" as="geometry" />
          </mxCell>
        </object>
        <object label="Filename: %filename%" placeholders="1" id="h7L3MlKvrl_dhOmhB3lf-15">
          <mxCell style="strokeWidth=1;shadow=0;dashed=0;align=center;html=1;shape=mxgraph.mockup.text.textBox;fontColor=#666666;align=left;fontSize=17;spacingLeft=4;spacingTop=-3;whiteSpace=wrap;strokeColor=#333333;mainText=;fillColor=none;fontFamily=Open Sans;movable=1;resizable=1;rotatable=1;deletable=1;editable=1;locked=0;connectable=1;" parent="1" vertex="1">
            <mxGeometry x="403.54" y="697.4" width="400" height="30" as="geometry" />
          </mxCell>
        </object>
        <object label="&lt;div align=&quot;left&quot;&gt;%description%&lt;/div&gt;" placeholders="1" id="h7L3MlKvrl_dhOmhB3lf-16">
          <mxCell style="strokeWidth=1;shadow=0;dashed=0;html=1;shape=mxgraph.mockup.text.textBox;fontColor=#666666;align=left;verticalAlign=top;fontSize=12;spacingLeft=4;spacingTop=-3;whiteSpace=wrap;strokeColor=#333333;mainText=;fillColor=none;fontFamily=Open Sans;movable=1;resizable=1;rotatable=1;deletable=1;editable=1;locked=0;connectable=1;" parent="1" vertex="1">
            <mxGeometry x="403.54" y="577.4" width="718.5" height="90" as="geometry" />
          </mxCell>
        </object>
        <object label="&lt;b&gt;Rev: %rev%&lt;br&gt;&lt;/b&gt;" placeholders="1" id="EyKvBmyPNv_MzgSUc5b6-1">
          <mxCell style="strokeWidth=1;shadow=0;dashed=0;align=center;html=1;shape=mxgraph.mockup.text.textBox;fontColor=#666666;align=left;fontSize=17;spacingLeft=4;spacingTop=-3;whiteSpace=wrap;strokeColor=#333333;mainText=;fillColor=none;fontFamily=Open Sans;movable=1;resizable=1;rotatable=1;deletable=1;editable=1;locked=0;connectable=1;" parent="1" vertex="1">
            <mxGeometry x="1003.54" y="667.4" width="118.5" height="30" as="geometry" />
          </mxCell>
        </object>
        <object label="&lt;div align=&quot;left&quot;&gt;Size: %size%&lt;/div&gt;" placeholders="1" id="kxruepuoSyuf0zwoeRE9-5">
          <mxCell style="strokeWidth=1;shadow=0;dashed=0;align=left;html=1;shape=mxgraph.mockup.text.textBox;fontColor=#666666;align=left;fontSize=17;spacingLeft=4;spacingTop=-3;whiteSpace=wrap;strokeColor=#333333;mainText=;fillColor=none;fontFamily=Open Sans;movable=1;resizable=1;rotatable=1;deletable=1;editable=1;locked=0;connectable=1;" parent="1" vertex="1">
            <mxGeometry x="923.54" y="727.4" width="198.5" height="30" as="geometry" />
          </mxCell>
        </object>
        <object label="&lt;div align=&quot;left&quot;&gt;Scale: %scale%&lt;/div&gt;" placeholders="1" id="kxruepuoSyuf0zwoeRE9-6">
          <mxCell style="strokeWidth=1;shadow=0;dashed=0;align=left;html=1;shape=mxgraph.mockup.text.textBox;fontColor=#666666;align=left;fontSize=17;spacingLeft=4;spacingTop=-3;whiteSpace=wrap;strokeColor=#333333;mainText=;fillColor=none;fontFamily=Open Sans;movable=1;resizable=1;rotatable=1;deletable=1;editable=1;locked=0;connectable=1;" parent="1" vertex="1">
            <mxGeometry x="803.54" y="727.4" width="120" height="30" as="geometry" />
          </mxCell>
        </object>
        <object label="Prepared By: %author%" placeholders="1" id="kxruepuoSyuf0zwoeRE9-7">
          <mxCell style="strokeWidth=1;shadow=0;dashed=0;align=center;html=1;shape=mxgraph.mockup.text.textBox;fontColor=#666666;align=left;fontSize=17;spacingLeft=4;spacingTop=-3;whiteSpace=wrap;strokeColor=#333333;mainText=;fillColor=none;fontFamily=Open Sans;movable=1;resizable=1;rotatable=1;deletable=1;editable=1;locked=0;connectable=1;" parent="1" vertex="1">
            <mxGeometry x="403.54" y="727.4" width="400" height="30" as="geometry" />
          </mxCell>
        </object>
        <object label="%extra_label% %dwg_no%%part_num%%serial_num%" placeholders="1" id="kxruepuoSyuf0zwoeRE9-8">
          <mxCell style="strokeWidth=1;shadow=0;dashed=0;align=center;html=1;shape=mxgraph.mockup.text.textBox;fontColor=#666666;align=left;fontSize=17;spacingLeft=4;spacingTop=-3;whiteSpace=wrap;strokeColor=#333333;mainText=;fillColor=none;fontFamily=Open Sans;movable=1;resizable=1;rotatable=1;deletable=1;editable=1;locked=0;connectable=1;" parent="1" vertex="1">
            <mxGeometry x="803.54" y="697.4" width="318.5" height="30" as="geometry" />
          </mxCell>
        </object>
        <mxCell id="BJZrzUYKFe9HMTDBOYGV-4" value="" style="endArrow=none;html=1;rounded=0;strokeWidth=3;targetPerimeterSpacing=0;movable=1;resizable=1;rotatable=1;deletable=1;editable=1;locked=0;connectable=1;" parent="1" edge="1">
          <mxGeometry width="50" height="50" relative="1" as="geometry">
            <mxPoint x="580.47" y="58" as="sourcePoint" />
            <mxPoint x="580.47" y="19.52" as="targetPoint" />
          </mxGeometry>
        </mxCell>
        <mxCell id="BJZrzUYKFe9HMTDBOYGV-10" value="" style="endArrow=none;html=1;rounded=0;strokeWidth=3;movable=1;resizable=1;rotatable=1;deletable=1;editable=1;locked=0;connectable=1;" parent="1" edge="1">
          <mxGeometry width="50" height="50" relative="1" as="geometry">
            <mxPoint x="580.47" y="807.086" as="sourcePoint" />
            <mxPoint x="580.47" y="767.7" as="targetPoint" />
          </mxGeometry>
        </mxCell>
        <mxCell id="BJZrzUYKFe9HMTDBOYGV-11" value="" style="endArrow=none;html=1;rounded=0;strokeWidth=3;movable=1;resizable=1;rotatable=1;deletable=1;editable=1;locked=0;connectable=1;" parent="1" edge="1">
          <mxGeometry width="50" height="50" relative="1" as="geometry">
            <mxPoint x="19.700000000000003" y="393.7" as="sourcePoint" />
            <mxPoint x="59" y="393.7" as="targetPoint" />
          </mxGeometry>
        </mxCell>
        <mxCell id="BJZrzUYKFe9HMTDBOYGV-12" value="" style="endArrow=none;html=1;rounded=0;strokeWidth=3;movable=1;resizable=1;rotatable=1;deletable=1;editable=1;locked=0;connectable=1;" parent="1" edge="1">
          <mxGeometry width="50" height="50" relative="1" as="geometry">
            <mxPoint x="1102.73" y="393.7" as="sourcePoint" />
            <mxPoint x="1141.73" y="393.7" as="targetPoint" />
          </mxGeometry>
        </mxCell>
        <mxCell id="BJZrzUYKFe9HMTDBOYGV-27" value="" style="endArrow=none;html=1;rounded=0;movable=1;resizable=1;rotatable=1;deletable=1;editable=1;locked=0;connectable=1;" parent="1" edge="1">
          <mxGeometry width="50" height="50" relative="1" as="geometry">
            <mxPoint x="777.56" y="39.52" as="sourcePoint" />
            <mxPoint x="777.56" y="19.52" as="targetPoint" />
          </mxGeometry>
        </mxCell>
        <mxCell id="BJZrzUYKFe9HMTDBOYGV-34" value="" style="endArrow=none;html=1;rounded=0;movable=1;resizable=1;rotatable=1;deletable=1;editable=1;locked=0;connectable=1;" parent="1" edge="1">
          <mxGeometry width="50" height="50" relative="1" as="geometry">
            <mxPoint x="974.4124999999999" y="39.52" as="sourcePoint" />
            <mxPoint x="974.4124999999999" y="19.52" as="targetPoint" />
          </mxGeometry>
        </mxCell>
        <mxCell id="BJZrzUYKFe9HMTDBOYGV-35" value="" style="endArrow=none;html=1;rounded=0;movable=1;resizable=1;rotatable=1;deletable=1;editable=1;locked=0;connectable=1;" parent="1" edge="1">
          <mxGeometry width="50" height="50" relative="1" as="geometry">
            <mxPoint x="383.8549999999999" y="39.52" as="sourcePoint" />
            <mxPoint x="383.8549999999999" y="19.52" as="targetPoint" />
          </mxGeometry>
        </mxCell>
        <mxCell id="BJZrzUYKFe9HMTDBOYGV-36" value="" style="endArrow=none;html=1;rounded=0;movable=1;resizable=1;rotatable=1;deletable=1;editable=1;locked=0;connectable=1;" parent="1" edge="1">
          <mxGeometry width="50" height="50" relative="1" as="geometry">
            <mxPoint x="187.0074999999999" y="39.52" as="sourcePoint" />
            <mxPoint x="187.0074999999999" y="19.52" as="targetPoint" />
          </mxGeometry>
        </mxCell>
        <mxCell id="BJZrzUYKFe9HMTDBOYGV-38" value="" style="endArrow=none;html=1;rounded=0;movable=1;resizable=1;rotatable=1;deletable=1;editable=1;locked=0;connectable=1;" parent="1" edge="1">
          <mxGeometry width="50" height="50" relative="1" as="geometry">
            <mxPoint x="974.415" y="807.09" as="sourcePoint" />
            <mxPoint x="974.415" y="787.4950000000001" as="targetPoint" />
          </mxGeometry>
        </mxCell>
        <mxCell id="BJZrzUYKFe9HMTDBOYGV-45" value="" style="endArrow=none;html=1;rounded=0;movable=1;resizable=1;rotatable=1;deletable=1;editable=1;locked=0;connectable=1;" parent="1" edge="1">
          <mxGeometry width="50" height="50" relative="1" as="geometry">
            <mxPoint x="19.510000000000005" y="196.85" as="sourcePoint" />
            <mxPoint x="39.56" y="196.85" as="targetPoint" />
          </mxGeometry>
        </mxCell>
        <mxCell id="BJZrzUYKFe9HMTDBOYGV-46" value="" style="endArrow=none;html=1;rounded=0;movable=1;resizable=1;rotatable=1;deletable=1;editable=1;locked=0;connectable=1;" parent="1" edge="1">
          <mxGeometry width="50" height="50" relative="1" as="geometry">
            <mxPoint x="19.50250000000001" y="590.5525" as="sourcePoint" />
            <mxPoint x="39.5525" y="590.5525" as="targetPoint" />
          </mxGeometry>
        </mxCell>
        <mxCell id="BJZrzUYKFe9HMTDBOYGV-47" value="" style="endArrow=none;html=1;rounded=0;movable=1;resizable=1;rotatable=1;deletable=1;editable=1;locked=0;connectable=1;" parent="1" edge="1">
          <mxGeometry width="50" height="50" relative="1" as="geometry">
            <mxPoint x="1121.8625" y="196.8525" as="sourcePoint" />
            <mxPoint x="1141.9125" y="196.8525" as="targetPoint" />
          </mxGeometry>
        </mxCell>
        <mxCell id="BJZrzUYKFe9HMTDBOYGV-48" value="" style="endArrow=none;html=1;rounded=0;movable=1;resizable=1;rotatable=1;deletable=1;editable=1;locked=0;connectable=1;" parent="1" edge="1">
          <mxGeometry width="50" height="50" relative="1" as="geometry">
            <mxPoint x="1121.855" y="590.555" as="sourcePoint" />
            <mxPoint x="1141.905" y="590.555" as="targetPoint" />
          </mxGeometry>
        </mxCell>
        <mxCell id="BJZrzUYKFe9HMTDBOYGV-49" value="A" style="text;html=1;strokeColor=none;fillColor=none;align=center;verticalAlign=middle;whiteSpace=wrap;rounded=0;fontFamily=Open Sans;fontSize=18;movable=1;resizable=1;rotatable=1;deletable=1;editable=1;locked=0;connectable=1;" parent="1" vertex="1">
          <mxGeometry x="19.69" y="88.58" width="19.685" height="19.685" as="geometry" />
        </mxCell>
        <mxCell id="BJZrzUYKFe9HMTDBOYGV-52" value="B" style="text;html=1;strokeColor=none;fillColor=none;align=center;verticalAlign=middle;whiteSpace=wrap;rounded=0;fontFamily=Open Sans;fontSize=18;movable=1;resizable=1;rotatable=1;deletable=1;editable=1;locked=0;connectable=1;" parent="1" vertex="1">
          <mxGeometry x="19.682499999999997" y="285.4325" width="19.685" height="19.685" as="geometry" />
        </mxCell>
        <mxCell id="BJZrzUYKFe9HMTDBOYGV-53" value="C" style="text;html=1;strokeColor=none;fillColor=none;align=center;verticalAlign=middle;whiteSpace=wrap;rounded=0;fontFamily=Open Sans;fontSize=18;movable=1;resizable=1;rotatable=1;deletable=1;editable=1;locked=0;connectable=1;" parent="1" vertex="1">
          <mxGeometry x="19.674999999999997" y="482.28499999999997" width="19.685" height="19.685" as="geometry" />
        </mxCell>
        <mxCell id="BJZrzUYKFe9HMTDBOYGV-54" value="D" style="text;html=1;strokeColor=none;fillColor=none;align=center;verticalAlign=middle;whiteSpace=wrap;rounded=0;fontFamily=Open Sans;fontSize=18;movable=1;resizable=1;rotatable=1;deletable=1;editable=1;locked=0;connectable=1;" parent="1" vertex="1">
          <mxGeometry x="19.677500000000002" y="679.13" width="19.685" height="19.685" as="geometry" />
        </mxCell>
        <mxCell id="BJZrzUYKFe9HMTDBOYGV-55" value="A" style="text;html=1;strokeColor=none;fillColor=none;align=center;verticalAlign=middle;whiteSpace=wrap;rounded=0;fontFamily=Open Sans;fontSize=18;movable=1;resizable=1;rotatable=1;deletable=1;editable=1;locked=0;connectable=1;" parent="1" vertex="1">
          <mxGeometry x="1122.0325" y="88.5825" width="19.685" height="19.685" as="geometry" />
        </mxCell>
        <mxCell id="BJZrzUYKFe9HMTDBOYGV-56" value="B" style="text;html=1;strokeColor=none;fillColor=none;align=center;verticalAlign=middle;whiteSpace=wrap;rounded=0;fontFamily=Open Sans;fontSize=18;movable=1;resizable=1;rotatable=1;deletable=1;editable=1;locked=0;connectable=1;" parent="1" vertex="1">
          <mxGeometry x="1122.025" y="285.435" width="19.685" height="19.685" as="geometry" />
        </mxCell>
        <mxCell id="BJZrzUYKFe9HMTDBOYGV-57" value="C" style="text;html=1;strokeColor=none;fillColor=none;align=center;verticalAlign=middle;whiteSpace=wrap;rounded=0;fontFamily=Open Sans;fontSize=18;movable=1;resizable=1;rotatable=1;deletable=1;editable=1;locked=0;connectable=1;" parent="1" vertex="1">
          <mxGeometry x="1122.0275" y="482.28749999999997" width="19.685" height="19.685" as="geometry" />
        </mxCell>
        <mxCell id="BJZrzUYKFe9HMTDBOYGV-58" value="D" style="text;html=1;strokeColor=none;fillColor=none;align=center;verticalAlign=middle;whiteSpace=wrap;rounded=0;fontFamily=Open Sans;fontSize=18;movable=1;resizable=1;rotatable=1;deletable=1;editable=1;locked=0;connectable=1;" parent="1" vertex="1">
          <mxGeometry x="1122.04" y="679.1324999999999" width="19.685" height="19.685" as="geometry" />
        </mxCell>
        <mxCell id="BJZrzUYKFe9HMTDBOYGV-59" value="1" style="text;html=1;strokeColor=none;fillColor=none;align=center;verticalAlign=middle;whiteSpace=wrap;rounded=0;fontFamily=Open Sans;fontSize=18;movable=1;resizable=1;rotatable=1;deletable=1;editable=1;locked=0;connectable=1;" parent="1" vertex="1">
          <mxGeometry x="78.7425" y="19.682500000000005" width="19.685" height="19.685" as="geometry" />
        </mxCell>
        <mxCell id="BJZrzUYKFe9HMTDBOYGV-60" value="2" style="text;html=1;strokeColor=none;fillColor=none;align=center;verticalAlign=middle;whiteSpace=wrap;rounded=0;fontFamily=Open Sans;fontSize=18;movable=1;resizable=1;rotatable=1;deletable=1;editable=1;locked=0;connectable=1;" parent="1" vertex="1">
          <mxGeometry x="275.595" y="19.685000000000006" width="19.685" height="19.685" as="geometry" />
        </mxCell>
        <mxCell id="BJZrzUYKFe9HMTDBOYGV-61" value="3" style="text;html=1;strokeColor=none;fillColor=none;align=center;verticalAlign=middle;whiteSpace=wrap;rounded=0;fontFamily=Open Sans;fontSize=18;movable=1;resizable=1;rotatable=1;deletable=1;editable=1;locked=0;connectable=1;" parent="1" vertex="1">
          <mxGeometry x="472.4375" y="19.677500000000006" width="19.685" height="19.685" as="geometry" />
        </mxCell>
        <mxCell id="BJZrzUYKFe9HMTDBOYGV-62" value="4" style="text;html=1;strokeColor=none;fillColor=none;align=center;verticalAlign=middle;whiteSpace=wrap;rounded=0;fontFamily=Open Sans;fontSize=18;movable=1;resizable=1;rotatable=1;deletable=1;editable=1;locked=0;connectable=1;" parent="1" vertex="1">
          <mxGeometry x="669.29" y="19.68" width="19.685" height="19.685" as="geometry" />
        </mxCell>
        <mxCell id="BJZrzUYKFe9HMTDBOYGV-63" value="5" style="text;html=1;strokeColor=none;fillColor=none;align=center;verticalAlign=middle;whiteSpace=wrap;rounded=0;fontFamily=Open Sans;fontSize=18;movable=1;resizable=1;rotatable=1;deletable=1;editable=1;locked=0;connectable=1;" parent="1" vertex="1">
          <mxGeometry x="866.1424999999999" y="19.672500000000003" width="19.685" height="19.685" as="geometry" />
        </mxCell>
        <mxCell id="BJZrzUYKFe9HMTDBOYGV-64" value="6" style="text;html=1;strokeColor=none;fillColor=none;align=center;verticalAlign=middle;whiteSpace=wrap;rounded=0;fontFamily=Open Sans;fontSize=18;movable=1;resizable=1;rotatable=1;deletable=1;editable=1;locked=0;connectable=1;" parent="1" vertex="1">
          <mxGeometry x="1062.985" y="19.67500000000001" width="19.685" height="19.685" as="geometry" />
        </mxCell>
        <mxCell id="BJZrzUYKFe9HMTDBOYGV-77" value="1" style="text;html=1;strokeColor=none;fillColor=none;align=center;verticalAlign=middle;whiteSpace=wrap;rounded=0;fontFamily=Open Sans;fontSize=18;movable=1;resizable=1;rotatable=1;deletable=1;editable=1;locked=0;connectable=1;" parent="1" vertex="1">
          <mxGeometry x="78.745" y="787.405" width="19.685" height="19.685" as="geometry" />
        </mxCell>
        <mxCell id="BJZrzUYKFe9HMTDBOYGV-78" value="2" style="text;html=1;strokeColor=none;fillColor=none;align=center;verticalAlign=middle;whiteSpace=wrap;rounded=0;fontFamily=Open Sans;fontSize=18;movable=1;resizable=1;rotatable=1;deletable=1;editable=1;locked=0;connectable=1;" parent="1" vertex="1">
          <mxGeometry x="275.5975" y="787.4075" width="19.685" height="19.685" as="geometry" />
        </mxCell>
        <mxCell id="BJZrzUYKFe9HMTDBOYGV-79" value="3" style="text;html=1;strokeColor=none;fillColor=none;align=center;verticalAlign=middle;whiteSpace=wrap;rounded=0;fontFamily=Open Sans;fontSize=18;movable=1;resizable=1;rotatable=1;deletable=1;editable=1;locked=0;connectable=1;" parent="1" vertex="1">
          <mxGeometry x="472.44" y="787.4" width="19.685" height="19.685" as="geometry" />
        </mxCell>
        <mxCell id="BJZrzUYKFe9HMTDBOYGV-80" value="4" style="text;html=1;strokeColor=none;fillColor=none;align=center;verticalAlign=middle;whiteSpace=wrap;rounded=0;fontFamily=Open Sans;fontSize=18;movable=1;resizable=1;rotatable=1;deletable=1;editable=1;locked=0;connectable=1;" parent="1" vertex="1">
          <mxGeometry x="669.2924999999999" y="787.4025" width="19.685" height="19.685" as="geometry" />
        </mxCell>
        <mxCell id="BJZrzUYKFe9HMTDBOYGV-81" value="5" style="text;html=1;strokeColor=none;fillColor=none;align=center;verticalAlign=middle;whiteSpace=wrap;rounded=0;fontFamily=Open Sans;fontSize=18;movable=1;resizable=1;rotatable=1;deletable=1;editable=1;locked=0;connectable=1;" parent="1" vertex="1">
          <mxGeometry x="866.1449999999999" y="787.405" width="19.685" height="19.685" as="geometry" />
        </mxCell>
        <mxCell id="BJZrzUYKFe9HMTDBOYGV-82" value="6" style="text;html=1;strokeColor=none;fillColor=none;align=center;verticalAlign=middle;whiteSpace=wrap;rounded=0;fontFamily=Open Sans;fontSize=18;movable=1;resizable=1;rotatable=1;deletable=1;editable=1;locked=0;connectable=1;" parent="1" vertex="1">
          <mxGeometry x="1062.9875" y="787.3975" width="19.685" height="19.685" as="geometry" />
        </mxCell>
        <mxCell id="cq8XSInm7gHcdcnIpddO-2" value="" style="endArrow=none;html=1;rounded=0;movable=1;resizable=1;rotatable=1;deletable=1;editable=1;locked=0;connectable=1;" edge="1" parent="1">
          <mxGeometry width="50" height="50" relative="1" as="geometry">
            <mxPoint x="777.5574999999999" y="806.9925" as="sourcePoint" />
            <mxPoint x="777.5574999999999" y="787.3975" as="targetPoint" />
          </mxGeometry>
        </mxCell>
        <mxCell id="cq8XSInm7gHcdcnIpddO-3" value="" style="endArrow=none;html=1;rounded=0;movable=1;resizable=1;rotatable=1;deletable=1;editable=1;locked=0;connectable=1;" edge="1" parent="1">
          <mxGeometry width="50" height="50" relative="1" as="geometry">
            <mxPoint x="383.8599999999999" y="806.9949999999999" as="sourcePoint" />
            <mxPoint x="383.8599999999999" y="787.4" as="targetPoint" />
          </mxGeometry>
        </mxCell>
        <mxCell id="cq8XSInm7gHcdcnIpddO-4" value="" style="endArrow=none;html=1;rounded=0;movable=1;resizable=1;rotatable=1;deletable=1;editable=1;locked=0;connectable=1;" edge="1" parent="1">
          <mxGeometry width="50" height="50" relative="1" as="geometry">
            <mxPoint x="187.01249999999987" y="807.0974999999999" as="sourcePoint" />
            <mxPoint x="187.01249999999987" y="787.5024999999999" as="targetPoint" />
          </mxGeometry>
        </mxCell>
        <object label="Drawing Frame" id="BJZrzUYKFe9HMTDBOYGV-83">
          <mxCell style="locked=1;" parent="0" />
        </object>
        <mxCell id="BJZrzUYKFe9HMTDBOYGV-84" value="" style="rounded=0;whiteSpace=wrap;html=1;fillColor=none;strokeWidth=3;movable=1;resizable=1;rotatable=1;deletable=1;editable=1;locked=0;connectable=1;" parent="BJZrzUYKFe9HMTDBOYGV-83" vertex="1">
          <mxGeometry x="39.3725" y="39.37" width="1082.675" height="748.03" as="geometry" />
        </mxCell>
        <object label="Document" id="NbdiYjX3MhI7OpqD2NvG-1">
          <mxCell parent="0" />
        </object>
        <mxCell id="kxruepuoSyuf0zwoeRE9-1" value="This text is on the document layer. Lower layers have the title block and grid reference frame. These layers are locked to prevent disturbance, but you can unlock them in the &quot;Layers&quot; panel." style="text;html=1;strokeColor=none;fillColor=none;align=center;verticalAlign=middle;whiteSpace=wrap;rounded=0;fontFamily=Open Sans;movable=1;resizable=1;rotatable=1;deletable=1;editable=1;locked=0;connectable=1;" parent="NbdiYjX3MhI7OpqD2NvG-1" vertex="1">
          <mxGeometry x="196.85000000000002" y="147.64" width="330" height="70" as="geometry" />
        </mxCell>
      </root>
    </mxGraphModel>
  </diagram>
</mxfile>
